<svg xmlns="http://www.w3.org/2000/svg" viewBox="0 0 206.26 60.96"><defs><style>.cls-1{fill:#fff;}</style></defs><title>logo-white</title><g id="レイヤー_2" data-name="レイヤー 2"><g id="レイヤー_1-2" data-name="レイヤー 1"><path class="cls-1" d="M0,30.87V0H6.11V29.82a10.6,10.6,0,0,0,3.33,7.87,11.27,11.27,0,0,0,8.14,3.25,11.33,11.33,0,0,0,8.16-3.25,10.52,10.52,0,0,0,3.37-7.87V0h6.11V30.87a13.71,13.71,0,0,1-1.39,6,15.53,15.53,0,0,1-3.74,4.94,18.06,18.06,0,0,1-5.61,3.29,19.65,19.65,0,0,1-6.9,1.22A19.22,19.22,0,0,1,8.7,44.29a16.33,16.33,0,0,1-6.38-5.63A14,14,0,0,1,0,30.87Z"/><path class="cls-1" d="M45.4,61V15.19h6.11v5.13a13.64,13.64,0,0,1,11.26-5.66,14.93,14.93,0,0,1,7.75,2.1,15.31,15.31,0,0,1,5.6,5.75,16.56,16.56,0,0,1,0,16,15.31,15.31,0,0,1-5.6,5.75,14.93,14.93,0,0,1-7.75,2.1A13.64,13.64,0,0,1,51.51,40.7V61Zm6.11-27.77a10,10,0,0,0,3.65,5.59A10.64,10.64,0,0,0,69,37.9a10.05,10.05,0,0,0,3-7.39A10.38,10.38,0,0,0,61.58,20.08a10.2,10.2,0,0,0-6.42,2.16,10,10,0,0,0-3.65,5.59Z"/><path class="cls-1" d="M83.15,20V15.25h5.13V6.7h6.1v8.55h7.45V20H94.38v25.8h-6.1V20Z"/><path class="cls-1" d="M108.73,38.51a15.41,15.41,0,0,1-2.16-8,15.75,15.75,0,0,1,7.88-13.75,15.75,15.75,0,0,1,8-2.1,15.57,15.57,0,0,1,6.15,1.24,15.93,15.93,0,0,1,5.13,3.41,15.22,15.22,0,0,1,3.44,5.45,18.07,18.07,0,0,1,1.13,6.43v1.29H112.68a9.74,9.74,0,0,0,3.26,6.25,9.49,9.49,0,0,0,6.51,2.44,9.63,9.63,0,0,0,8-3.57l6,.3a12.77,12.77,0,0,1-5.23,6.21,15.54,15.54,0,0,1-8.38,2.25,16.42,16.42,0,0,1-8.18-2.1A15.66,15.66,0,0,1,108.73,38.51Zm4-10h19.45a9.27,9.27,0,0,0-3.25-6.09,9.74,9.74,0,0,0-6.49-2.31A9.59,9.59,0,0,0,116,22.45,9.41,9.41,0,0,0,112.74,28.48Z"/><path class="cls-1" d="M147,38.51a15.58,15.58,0,0,1,0-16,15.86,15.86,0,0,1,6-5.75,16.93,16.93,0,0,1,8.33-2.1,14.93,14.93,0,0,1,7.86,2.11v6a11.53,11.53,0,0,0-7.86-2.68,10.38,10.38,0,0,0-10.43,10.43,10.38,10.38,0,0,0,10.43,10.43,11.51,11.51,0,0,0,7.86-2.63v5.93a14.64,14.64,0,0,1-7.86,2.12,16.93,16.93,0,0,1-8.33-2.1A15.86,15.86,0,0,1,147,38.51Z"/><path class="cls-1" d="M178.82,45.76V0h6.1V19.4a11.74,11.74,0,0,1,4.15-3.49,11.59,11.59,0,0,1,5.3-1.25,11.34,11.34,0,0,1,8.42,3.56,11.91,11.91,0,0,1,3.47,8.62V45.76h-6.08V27.53a7.44,7.44,0,0,0-7.45-7.45,7.71,7.71,0,0,0-5.54,2.18,7,7,0,0,0-2.27,5.27V45.76Z"/></g></g></svg>